<?xml version="1.0" encoding="iso-8859-1"?>
<!-- Generator: Adobe Illustrator 19.0.0, SVG Export Plug-In . SVG Version: 6.00 Build 0)  -->
<svg version="1.1" id="Layer_1" xmlns="http://www.w3.org/2000/svg" xmlns:xlink="http://www.w3.org/1999/xlink" x="0px" y="0px"
	 viewBox="0 0 512 512" style="enable-background:new 0 0 512 512;" xml:space="preserve">
<circle style="fill:#F4E3C3;" cx="256" cy="256" r="256"/>
<path style="fill:#FED8B2;" d="M275.654,511.238c58.82-4.503,116.381-29.234,161.364-74.218
	c62.759-62.759,86.111-149.995,70.075-230.979l-86.461-86.463l-57.718,78.205l-82.111-82.111l-21.921,34.011l80.281,80.281
	l-127.086,82.601l-76.893,51.753l42.201,41.613l-7.22-0.186L275.654,511.238z"/>
<path style="fill:#84DBFF;" d="M350.801,301.201c-20.418,0-36.971,16.553-36.971,36.971c0,2.227,0.231,4.396,0.609,6.513
	c-0.205-0.003-0.403-0.031-0.609-0.031c-14.498,0-27.012,8.364-33.07,20.513c-6.558-5.928-15.222-9.571-24.759-9.571
	c-9.537,0-18.201,3.643-24.759,9.571c-6.06-12.148-18.572-20.513-33.07-20.513c-0.205,0-0.403,0.028-0.609,0.031
	c0.378-2.119,0.609-4.287,0.609-6.513c0-20.418-16.553-36.971-36.971-36.971s-36.971,16.553-36.971,36.971
	c0,20.42,16.553,36.971,36.971,36.971c0.205,0,0.403-0.028,0.609-0.031c-0.378,2.119-0.609,4.287-0.609,6.513
	c0,20.418,16.553,36.971,36.971,36.971c9.537,0,18.201-3.643,24.759-9.571c6.06,12.148,18.572,20.513,33.07,20.513
	c14.498,0,27.012-8.364,33.07-20.513c6.558,5.928,15.222,9.571,24.759,9.571c20.418,0,36.971-16.553,36.971-36.971
	c0-2.227-0.231-4.396-0.609-6.513c0.205,0.003,0.403,0.031,0.609,0.031c20.418,0,36.971-16.553,36.971-36.971
	C387.772,317.754,371.219,301.201,350.801,301.201z"/>
<path style="fill:#31BAFD;" d="M350.801,301.201c-20.418,0-36.971,16.553-36.971,36.971c0,2.227,0.231,4.396,0.609,6.513
	c-0.205-0.003-0.403-0.031-0.609-0.031c-14.498,0-27.012,8.364-33.07,20.513c-6.558-5.928-15.222-9.571-24.759-9.571
	c-0.193,0-0.381,0.024-0.574,0.028v73.895c0.193,0.003,0.381,0.021,0.574,0.021c14.498,0,27.012-8.364,33.07-20.513
	c6.558,5.928,15.222,9.571,24.759,9.571c20.418,0,36.971-16.553,36.971-36.971c0-2.227-0.231-4.396-0.609-6.513
	c0.205,0.003,0.403,0.031,0.609,0.031c20.418,0,36.971-16.553,36.971-36.971C387.772,317.754,371.219,301.201,350.801,301.201z"/>
<circle style="fill:#FFD15D;" cx="256" cy="250.656" r="122.484"/>
<path style="fill:#F9B54C;" d="M256,128.174c-0.193,0-0.381,0.014-0.574,0.014V373.11c0.193,0,0.381,0.014,0.574,0.014
	c67.641,0,122.477-54.834,122.477-122.475S323.641,128.174,256,128.174z"/>
<path style="fill:#324A5E;" d="M157.841,320.078c9.725,45.285,49.967,79.239,98.159,79.239s88.435-33.954,98.159-79.239H157.841z"/>
<path style="fill:#2B3B4E;" d="M255.426,320.076v79.227c0.191,0,0.381,0.012,0.574,0.012c48.19,0,88.435-33.954,98.159-79.239
	H255.426L255.426,320.076z"/>
<path style="fill:#3EAF99;" d="M193.15,319.288c6.227,28.996,31.994,50.736,62.85,50.736s56.623-21.74,62.85-50.736H193.15z"/>
<path style="fill:#2C9984;" d="M255.426,319.288v50.724c0.191,0.002,0.381,0.012,0.574,0.012c30.856,0,56.623-21.74,62.85-50.736
	H255.426z"/>
<circle style="fill:#324A5E;" cx="229.107" cy="279.118" r="14.117"/>
<circle style="fill:#2B3B4E;" cx="282.893" cy="279.118" r="14.117"/>
<path style="fill:#FC6F58;" d="M357.479,337.886H161.304c-5.28,0-10.197-2.686-13.052-7.127l-27.701-43.098
	c-4.634-7.208-2.546-16.806,4.663-21.442c7.211-4.634,16.81-2.544,21.442,4.663l23.119,35.973h177.988l16.675-34.357
	c3.741-7.709,13.024-10.926,20.732-7.184c7.709,3.741,10.924,13.024,7.184,20.732l-20.918,43.098
	C368.843,334.491,363.423,337.886,357.479,337.886z"/>
<path style="fill:#F1543F;" d="M385.172,265.314c-7.709-3.743-16.991-0.526-20.732,7.184l-16.677,34.357h-92.338v31.03h102.054
	c5.942,0,11.364-3.394,13.958-8.74l20.918-43.098C396.097,278.338,392.88,269.055,385.172,265.314z"/>
<path style="fill:#90DFAA;" d="M228.874,211.435c-2.788-21.314-18.792-55.867-60.154-64.998
	c-54.008-11.923-77.353-26.858-77.353-26.858s4.834,58.015,44.048,79.501h-23.097c0,0,20.413,53.181,74.13,53.181
	C222.437,252.261,230.783,226.032,228.874,211.435z"/>
<path style="fill:#31BAFD;" d="M228.874,227.552c-2.788-21.314-18.792-55.867-60.154-64.998
	c-54.008-11.924-77.353-26.86-77.353-26.86s4.834,58.015,44.048,79.501h-23.097c0,0,20.413,53.181,74.13,53.181
	C222.437,268.376,230.783,242.147,228.874,227.552z"/>
<circle style="fill:#FFFFFF;" cx="190.199" cy="227.556" r="29.008"/>
<circle style="fill:#324A5E;" cx="190.199" cy="227.556" r="15.041"/>
<path style="fill:#05BEA6;" d="M283.126,211.435c2.788-21.314,18.792-55.867,60.154-64.998
	c54.008-11.923,77.353-26.858,77.353-26.858s-4.834,58.015-44.048,79.501h23.099c0,0-20.413,53.181-74.13,53.181
	C289.563,252.261,281.217,226.032,283.126,211.435z"/>
<path style="fill:#2B9ED8;" d="M283.126,227.552c2.788-21.314,18.792-55.867,60.154-64.998c54.008-11.924,77.353-26.86,77.353-26.86
	s-4.834,58.015-44.048,79.501h23.099c0,0-20.413,53.181-74.13,53.181C289.563,268.376,281.217,242.147,283.126,227.552z"/>
<circle style="fill:#E6F3FF;" cx="321.784" cy="227.556" r="29.008"/>
<circle style="fill:#2B3B4E;" cx="321.784" cy="227.556" r="15.041"/>
<circle style="fill:#FC6F58;" cx="256" cy="138.774" r="33.902"/>
<g>
	<circle style="fill:#FD8469;" cx="256" cy="138.774" r="14.653"/>
	<path style="fill:#FD8469;" d="M256,154.29c-8.556,0-15.515-6.959-15.515-15.515s6.959-15.515,15.515-15.515
		c8.556,0,15.515,6.959,15.515,15.515S264.556,154.29,256,154.29z M256,124.983c-7.604,0-13.791,6.187-13.791,13.791
		c0,7.604,6.187,13.791,13.791,13.791c7.604,0,13.791-6.187,13.791-13.791C269.791,131.17,263.604,124.983,256,124.983z"/>
</g>
<circle style="fill:#FC6F58;" cx="256" cy="138.774" r="33.902"/>
<path style="fill:#F1543F;" d="M256,104.872c-0.193,0-0.381,0.026-0.574,0.029v67.748c0.193,0.003,0.381,0.029,0.574,0.029
	c18.723,0,33.902-15.179,33.902-33.902S274.723,104.872,256,104.872z"/>
<g>
</g>
<g>
</g>
<g>
</g>
<g>
</g>
<g>
</g>
<g>
</g>
<g>
</g>
<g>
</g>
<g>
</g>
<g>
</g>
<g>
</g>
<g>
</g>
<g>
</g>
<g>
</g>
<g>
</g>
</svg>
